<svg width="1840" height="1840" viewBox="0 0 1840 1840" fill="none" xmlns="http://www.w3.org/2000/svg">
<path d="M584.868 584.876L431.953 673.142L343.75 343.758L584.868 584.876Z" fill="url(#paint0_radial_1_15)"/>
<path d="M673.134 431.961L584.868 584.876L343.75 343.758L673.134 431.961Z" fill="url(#paint1_radial_1_15)"/>
<path d="M1496.24 1496.24L1255.12 1255.12L1407.97 1166.86L1496.24 1496.24Z" fill="url(#paint2_radial_1_15)"/>
<path d="M1496.22 1496.24L1166.84 1407.97L1255.1 1255.12L1496.22 1496.24Z" fill="url(#paint3_radial_1_15)"/>
<path d="M1496.23 343.758L1255.67 584.256L1167.66 431.775L1496.23 343.758Z" fill="url(#paint4_radial_1_15)"/>
<path d="M1496.22 343.758L1408.21 672.336L1255.66 584.256L1496.22 343.758Z" fill="url(#paint5_radial_1_15)"/>
<path d="M672.328 1408.21L343.75 1496.23L584.249 1255.67L672.328 1408.21Z" fill="url(#paint6_radial_1_15)"/>
<path d="M584.249 1255.67L343.75 1496.23L431.768 1167.66L584.249 1255.67Z" fill="url(#paint7_radial_1_15)"/>
<path d="M958.595 1204.53C952.955 1204.97 947.376 1205.34 941.736 1205.77C939.628 1205.96 937.335 1205.96 935.103 1205.96C1086.28 1198.02 1206.41 1073.13 1206.41 920.086C1206.41 915.066 1206.41 910.107 1205.97 905.086C1205.97 902.793 1205.97 900.5 1205.79 898.206C1205.35 892.566 1204.98 886.987 1204.55 881.346C1178.08 594.608 859.979 423.469 603.24 571.735L583.281 583.203L784.42 234.852L1164.82 615.248C1373.64 824.073 1241 1174.72 958.657 1204.47L958.595 1204.53Z" fill="url(#paint8_radial_1_15)"/>
<path d="M958.573 1204.54C1240.91 1174.79 1373.56 824.141 1164.73 615.317L784.336 234.92L919.833 0L1268.18 603.168C1416.64 859.906 1245.31 1178.07 958.573 1204.48V1204.54Z" fill="url(#paint9_radial_1_15)"/>
<path d="M881.428 635.457C887.068 635.023 892.647 634.651 898.288 634.217C900.395 634.031 902.689 634.031 904.92 634.031C753.741 641.965 633.615 766.863 633.615 919.902C633.615 924.923 633.615 929.882 634.049 934.902C634.049 937.196 634.049 939.489 634.235 941.783C634.669 947.423 635.041 953.002 635.475 958.642C661.942 1245.38 980.045 1416.52 1236.78 1268.25L1256.74 1256.79L1055.6 1605.14L675.207 1224.74C466.382 1015.92 599.028 665.271 881.366 635.519L881.428 635.457Z" fill="url(#paint10_radial_1_15)"/>
<path d="M881.4 635.461C599.063 665.213 466.417 1015.86 675.241 1224.68L1055.64 1605.08L920.079 1839.94L571.728 1236.77C423.276 980.031 594.6 661.866 881.339 635.461H881.4Z" fill="url(#paint11_radial_1_15)"/>
<path d="M1204.52 881.42C1204.96 887.061 1205.33 892.639 1205.76 898.28C1205.95 900.387 1205.95 902.681 1205.95 904.912C1198.02 753.733 1073.12 633.607 920.079 633.607C915.058 633.607 910.099 633.607 905.079 634.041C902.785 634.041 900.492 634.041 898.198 634.227C892.558 634.661 886.979 635.033 881.339 635.467C594.6 661.934 423.462 980.037 571.728 1236.78L583.195 1256.73L234.844 1055.6L615.241 675.199C824.065 466.374 1174.71 599.02 1204.46 881.358L1204.52 881.42Z" fill="url(#paint12_radial_1_15)"/>
<path d="M1204.54 881.417C1174.79 599.079 824.141 466.433 615.317 675.257L234.92 1055.65L0 920.157L603.168 571.806C859.906 423.354 1178.07 594.678 1204.48 881.417H1204.54Z" fill="url(#paint13_radial_1_15)"/>
<path d="M635.449 958.588C635.015 952.947 634.643 947.368 634.209 941.728C634.023 939.62 634.023 937.327 634.023 935.096C641.957 1086.27 766.856 1206.4 919.894 1206.4C924.915 1206.4 929.874 1206.4 934.895 1205.97C937.188 1205.97 939.481 1205.97 941.775 1205.78C947.415 1205.35 952.994 1204.97 958.635 1204.54C1245.37 1178.07 1416.51 859.971 1268.25 603.232L1256.78 583.273L1605.13 784.412L1224.73 1164.81C1015.91 1373.63 665.263 1240.99 635.511 958.65L635.449 958.588Z" fill="url(#paint14_radial_1_15)"/>
<path d="M635.469 958.581C665.221 1240.92 1015.87 1373.57 1224.69 1164.74L1605.09 784.344L1839.95 919.903L1236.78 1268.25C980.039 1416.71 661.874 1245.38 635.469 958.643V958.581Z" fill="url(#paint15_radial_1_15)"/>
<defs>
<radialGradient id="paint0_radial_1_15" cx="0" cy="0" r="1" gradientUnits="userSpaceOnUse" gradientTransform="translate(281.394 87.7633) scale(728.19 728.19)">
<stop stop-color="#FFE2FF"/>
<stop offset="0.03" stop-color="#FAD2FF"/>
<stop offset="0.1" stop-color="#F0B0FF"/>
<stop offset="0.17" stop-color="#E896FF"/>
<stop offset="0.25" stop-color="#E383FF"/>
<stop offset="0.32" stop-color="#E077FF"/>
<stop offset="0.41" stop-color="#DF74FF"/>
<stop offset="0.73" stop-color="#673EC0"/>
<stop offset="1" stop-color="#562495"/>
</radialGradient>
<radialGradient id="paint1_radial_1_15" cx="0" cy="0" r="1" gradientUnits="userSpaceOnUse" gradientTransform="translate(340.341 337.993) scale(621.887 621.887)">
<stop stop-color="#FFE2FF"/>
<stop offset="0.03" stop-color="#FAD2FF"/>
<stop offset="0.1" stop-color="#F0B0FF"/>
<stop offset="0.17" stop-color="#E896FF"/>
<stop offset="0.25" stop-color="#E383FF"/>
<stop offset="0.32" stop-color="#E077FF"/>
<stop offset="0.41" stop-color="#DF74FF"/>
<stop offset="0.73" stop-color="#673EC0"/>
<stop offset="1" stop-color="#562495"/>
</radialGradient>
<radialGradient id="paint2_radial_1_15" cx="0" cy="0" r="1" gradientUnits="userSpaceOnUse" gradientTransform="translate(1495.74 1496.55) scale(557.981 557.981)">
<stop stop-color="#FFE2FF"/>
<stop offset="0.03" stop-color="#FAD2FF"/>
<stop offset="0.1" stop-color="#F0B0FF"/>
<stop offset="0.17" stop-color="#E896FF"/>
<stop offset="0.25" stop-color="#E383FF"/>
<stop offset="0.32" stop-color="#E077FF"/>
<stop offset="0.41" stop-color="#DF74FF"/>
<stop offset="0.73" stop-color="#673EC0"/>
<stop offset="1" stop-color="#562495"/>
</radialGradient>
<radialGradient id="paint3_radial_1_15" cx="0" cy="0" r="1" gradientUnits="userSpaceOnUse" gradientTransform="translate(1731.57 1710.08) scale(789.74 789.74)">
<stop stop-color="#FFE2FF"/>
<stop offset="0.03" stop-color="#FAD2FF"/>
<stop offset="0.1" stop-color="#F0B0FF"/>
<stop offset="0.17" stop-color="#E896FF"/>
<stop offset="0.25" stop-color="#E383FF"/>
<stop offset="0.32" stop-color="#E077FF"/>
<stop offset="0.41" stop-color="#DF74FF"/>
<stop offset="0.73" stop-color="#673EC0"/>
<stop offset="1" stop-color="#562495"/>
</radialGradient>
<radialGradient id="paint4_radial_1_15" cx="0" cy="0" r="1" gradientUnits="userSpaceOnUse" gradientTransform="translate(1495.74 347.539) scale(633.478 633.478)">
<stop stop-color="#FFE2FF"/>
<stop offset="0.03" stop-color="#FAD2FF"/>
<stop offset="0.1" stop-color="#F0B0FF"/>
<stop offset="0.17" stop-color="#E896FF"/>
<stop offset="0.25" stop-color="#E383FF"/>
<stop offset="0.32" stop-color="#E077FF"/>
<stop offset="0.41" stop-color="#DF74FF"/>
<stop offset="0.73" stop-color="#673EC0"/>
<stop offset="1" stop-color="#562495"/>
</radialGradient>
<radialGradient id="paint5_radial_1_15" cx="0" cy="0" r="1" gradientUnits="userSpaceOnUse" gradientTransform="translate(1575.19 217.186) scale(670.483 670.483)">
<stop stop-color="#FFE2FF"/>
<stop offset="0.03" stop-color="#FAD2FF"/>
<stop offset="0.1" stop-color="#F0B0FF"/>
<stop offset="0.17" stop-color="#E896FF"/>
<stop offset="0.25" stop-color="#E383FF"/>
<stop offset="0.32" stop-color="#E077FF"/>
<stop offset="0.41" stop-color="#DF74FF"/>
<stop offset="0.73" stop-color="#673EC0"/>
<stop offset="1" stop-color="#562495"/>
</radialGradient>
<radialGradient id="paint6_radial_1_15" cx="0" cy="0" r="1" gradientUnits="userSpaceOnUse" gradientTransform="translate(119.367 1653.92) scale(799.906 799.906)">
<stop stop-color="#FFE2FF"/>
<stop offset="0.03" stop-color="#FAD2FF"/>
<stop offset="0.1" stop-color="#F0B0FF"/>
<stop offset="0.17" stop-color="#E896FF"/>
<stop offset="0.25" stop-color="#E383FF"/>
<stop offset="0.32" stop-color="#E077FF"/>
<stop offset="0.41" stop-color="#DF74FF"/>
<stop offset="0.73" stop-color="#673EC0"/>
<stop offset="1" stop-color="#562495"/>
</radialGradient>
<radialGradient id="paint7_radial_1_15" cx="0" cy="0" r="1" gradientUnits="userSpaceOnUse" gradientTransform="translate(340.341 1496.54) scale(526.122 526.121)">
<stop stop-color="#FFE2FF"/>
<stop offset="0.03" stop-color="#FAD2FF"/>
<stop offset="0.1" stop-color="#F0B0FF"/>
<stop offset="0.17" stop-color="#E896FF"/>
<stop offset="0.25" stop-color="#E383FF"/>
<stop offset="0.32" stop-color="#E077FF"/>
<stop offset="0.41" stop-color="#DF74FF"/>
<stop offset="0.73" stop-color="#673EC0"/>
<stop offset="1" stop-color="#562495"/>
</radialGradient>
<radialGradient id="paint8_radial_1_15" cx="0" cy="0" r="1" gradientUnits="userSpaceOnUse" gradientTransform="translate(87.9657 809.135) scale(1462.7 1462.7)">
<stop stop-color="#FFE2FF"/>
<stop offset="0.03" stop-color="#FAD2FF"/>
<stop offset="0.1" stop-color="#F0B0FF"/>
<stop offset="0.17" stop-color="#E896FF"/>
<stop offset="0.25" stop-color="#E383FF"/>
<stop offset="0.32" stop-color="#E077FF"/>
<stop offset="0.41" stop-color="#DF74FF"/>
<stop offset="0.73" stop-color="#673EC0"/>
<stop offset="1" stop-color="#562495"/>
</radialGradient>
<radialGradient id="paint9_radial_1_15" cx="0" cy="0" r="1" gradientUnits="userSpaceOnUse" gradientTransform="translate(944.689 52.8105) scale(1575.95 1575.95)">
<stop stop-color="#FFE2FF"/>
<stop offset="0.03" stop-color="#FAD2FF"/>
<stop offset="0.1" stop-color="#F0B0FF"/>
<stop offset="0.17" stop-color="#E896FF"/>
<stop offset="0.25" stop-color="#E383FF"/>
<stop offset="0.32" stop-color="#E077FF"/>
<stop offset="0.41" stop-color="#DF74FF"/>
<stop offset="0.73" stop-color="#673EC0"/>
<stop offset="1" stop-color="#562495"/>
</radialGradient>
<radialGradient id="paint10_radial_1_15" cx="0" cy="0" r="1" gradientUnits="userSpaceOnUse" gradientTransform="translate(1071.53 1593.3) scale(1275.63 1275.63)">
<stop stop-color="#FFE2FF"/>
<stop offset="0.03" stop-color="#FAD2FF"/>
<stop offset="0.1" stop-color="#F0B0FF"/>
<stop offset="0.17" stop-color="#E896FF"/>
<stop offset="0.25" stop-color="#E383FF"/>
<stop offset="0.32" stop-color="#E077FF"/>
<stop offset="0.41" stop-color="#DF74FF"/>
<stop offset="0.73" stop-color="#673EC0"/>
<stop offset="1" stop-color="#562495"/>
</radialGradient>
<radialGradient id="paint11_radial_1_15" cx="0" cy="0" r="1" gradientUnits="userSpaceOnUse" gradientTransform="translate(1015.16 3037.91) scale(2439.45 2439.45)">
<stop stop-color="#FFE2FF"/>
<stop offset="0.03" stop-color="#FAD2FF"/>
<stop offset="0.1" stop-color="#F0B0FF"/>
<stop offset="0.17" stop-color="#E896FF"/>
<stop offset="0.25" stop-color="#E383FF"/>
<stop offset="0.32" stop-color="#E077FF"/>
<stop offset="0.41" stop-color="#DF74FF"/>
<stop offset="0.73" stop-color="#673EC0"/>
<stop offset="1" stop-color="#562495"/>
</radialGradient>
<radialGradient id="paint12_radial_1_15" cx="0" cy="0" r="1" gradientUnits="userSpaceOnUse" gradientTransform="translate(-110.656 1928.15) scale(1698.8 1698.8)">
<stop stop-color="#FFE2FF"/>
<stop offset="0.03" stop-color="#FAD2FF"/>
<stop offset="0.1" stop-color="#F0B0FF"/>
<stop offset="0.17" stop-color="#E896FF"/>
<stop offset="0.25" stop-color="#E383FF"/>
<stop offset="0.32" stop-color="#E077FF"/>
<stop offset="0.41" stop-color="#DF74FF"/>
<stop offset="0.73" stop-color="#673EC0"/>
<stop offset="1" stop-color="#562495"/>
</radialGradient>
<radialGradient id="paint13_radial_1_15" cx="0" cy="0" r="1" gradientUnits="userSpaceOnUse" gradientTransform="translate(639.739 559.285) scale(1251.46 1251.46)">
<stop stop-color="#FFE2FF"/>
<stop offset="0.03" stop-color="#FAD2FF"/>
<stop offset="0.1" stop-color="#F0B0FF"/>
<stop offset="0.17" stop-color="#E896FF"/>
<stop offset="0.25" stop-color="#E383FF"/>
<stop offset="0.32" stop-color="#E077FF"/>
<stop offset="0.41" stop-color="#DF74FF"/>
<stop offset="0.73" stop-color="#673EC0"/>
<stop offset="1" stop-color="#562495"/>
</radialGradient>
<radialGradient id="paint14_radial_1_15" cx="0" cy="0" r="1" gradientUnits="userSpaceOnUse" gradientTransform="translate(1585.6 779.205) scale(1519.91 1519.91)">
<stop stop-color="#FFE2FF"/>
<stop offset="0.03" stop-color="#FAD2FF"/>
<stop offset="0.1" stop-color="#F0B0FF"/>
<stop offset="0.17" stop-color="#E896FF"/>
<stop offset="0.25" stop-color="#E383FF"/>
<stop offset="0.32" stop-color="#E077FF"/>
<stop offset="0.41" stop-color="#DF74FF"/>
<stop offset="0.73" stop-color="#673EC0"/>
<stop offset="1" stop-color="#562495"/>
</radialGradient>
<radialGradient id="paint15_radial_1_15" cx="0" cy="0" r="1" gradientUnits="userSpaceOnUse" gradientTransform="translate(1493.95 4.02508) scale(1585.74 1585.74)">
<stop stop-color="#FFE2FF"/>
<stop offset="0.03" stop-color="#FAD2FF"/>
<stop offset="0.1" stop-color="#F0B0FF"/>
<stop offset="0.17" stop-color="#E896FF"/>
<stop offset="0.25" stop-color="#E383FF"/>
<stop offset="0.32" stop-color="#E077FF"/>
<stop offset="0.41" stop-color="#DF74FF"/>
<stop offset="0.73" stop-color="#673EC0"/>
<stop offset="1" stop-color="#562495"/>
</radialGradient>
</defs>
</svg> 