<?xml version="1.0" encoding="utf-8"?>
<!-- Generator: Adobe Illustrator 27.9.0, SVG Export Plug-In . SVG Version: 6.00 Build 0)  -->
<svg version="1.1" id="Layer_1" xmlns="http://www.w3.org/2000/svg" xmlns:xlink="http://www.w3.org/1999/xlink" x="0px" y="0px"
	 viewBox="0 0 17.4 17.4" style="enable-background:new 0 0 17.4 17.4;" xml:space="preserve">
<style type="text/css">
	.st0{fill:url(#SVGID_1_);}
	.st1{fill:url(#SVGID_00000140731518576878550550000000044373249641430174_);}
	.st2{fill:url(#SVGID_00000125578812559357328560000006323041845484873621_);}
	.st3{fill:url(#SVGID_00000178922283225511682770000014302001771555129988_);}
	.st4{fill:url(#SVGID_00000067939267118978081820000000103568977409130403_);}
	.st5{fill:url(#SVGID_00000139991842193579859330000010958478633576098969_);}
	
		.st6{fill:url(#SVGID_00000131363067339278001500000000328945613622037418_);stroke:url(#SVGID_00000013160175216542543490000010556219682761165464_);stroke-width:3.727;}
	.st7{fill:#E0EBFF;}
</style>
<linearGradient id="SVGID_1_" gradientUnits="userSpaceOnUse" x1="6.8541" y1="11.5248" x2="6.8541" y2="1.5861" gradientTransform="matrix(1 0 0 -1 0 25.1906)">
	<stop  offset="0" style="stop-color:#8100E7"/>
	<stop  offset="0.5365" style="stop-color:#3EFFF3"/>
	<stop  offset="1" style="stop-color:#00BBF5"/>
</linearGradient>
<path class="st0" d="M8.7,13.7v10.2L6,21.3c-0.1-0.1-0.2-0.2-0.2-0.3L5,18.6c0-0.1,0-0.3,0-0.5c0.6-1.4,1.4-2.6,2.6-3.6L8.7,13.7z"
	/>
<linearGradient id="SVGID_00000013911184766397890620000007260117763182151057_" gradientUnits="userSpaceOnUse" x1="10.5387" y1="11.5248" x2="10.5387" y2="1.5861" gradientTransform="matrix(1 0 0 -1 0 25.1906)">
	<stop  offset="0" style="stop-color:#1D0AFF"/>
	<stop  offset="0.5104" style="stop-color:#00C2FF"/>
</linearGradient>
<path style="fill:url(#SVGID_00000013911184766397890620000007260117763182151057_);" d="M8.7,13.7v10.2l2.7-2.7
	c0.1-0.1,0.2-0.2,0.2-0.3l0.8-2.4c0-0.1,0-0.3,0-0.5c-0.6-1.4-1.4-2.6-2.6-3.6L8.7,13.7z"/>
<linearGradient id="SVGID_00000020389026408790730320000018058453871510678692_" gradientUnits="userSpaceOnUse" x1="2.6259" y1="15.1615" x2="-4.4019" y2="8.1337" gradientTransform="matrix(1 0 0 -1 0 25.1906)">
	<stop  offset="0" style="stop-color:#8100E7"/>
	<stop  offset="0.5365" style="stop-color:#3EFFF3"/>
	<stop  offset="1" style="stop-color:#00BBF5"/>
</linearGradient>
<path style="fill:url(#SVGID_00000020389026408790730320000018058453871510678692_);" d="M3.9,11.3l-7.2,7.2l0-3.8
	c0-0.1,0-0.2,0.1-0.4l1.1-2.3c0.1-0.1,0.2-0.2,0.3-0.3c1.4-0.6,2.9-0.8,4.3-0.7L3.9,11.3z"/>
<linearGradient id="SVGID_00000152945922948054902180000009725773147337969819_" gradientUnits="userSpaceOnUse" x1="5.2313" y1="12.5561" x2="-1.7965" y2="5.5283" gradientTransform="matrix(1 0 0 -1 0 25.1906)">
	<stop  offset="0" style="stop-color:#1D0AFF"/>
	<stop  offset="0.5104" style="stop-color:#00C2FF"/>
</linearGradient>
<path style="fill:url(#SVGID_00000152945922948054902180000009725773147337969819_);" d="M3.9,11.3l-7.2,7.2h3.8
	c0.1,0,0.2,0,0.4-0.1l2.3-1.1c0.1-0.1,0.2-0.2,0.3-0.3c0.6-1.4,0.8-2.9,0.7-4.3L3.9,11.3z"/>
<linearGradient id="SVGID_00000080894554477628629360000018018153736552136065_" gradientUnits="userSpaceOnUse" x1="14.7823" y1="15.1615" x2="21.81" y2="8.1337" gradientTransform="matrix(1 0 0 -1 0 25.1906)">
	<stop  offset="0" style="stop-color:#1D0AFF"/>
	<stop  offset="0.5104" style="stop-color:#00C2FF"/>
</linearGradient>
<path style="fill:url(#SVGID_00000080894554477628629360000018018153736552136065_);" d="M13.5,11.3l7.2,7.2v-3.8
	c0-0.1,0-0.2-0.1-0.4l-1.1-2.3c-0.1-0.1-0.2-0.2-0.3-0.3c-1.4-0.6-2.9-0.8-4.3-0.7L13.5,11.3z"/>
<linearGradient id="SVGID_00000071536566206359253330000011089309290829688223_" gradientUnits="userSpaceOnUse" x1="12.1769" y1="12.5561" x2="19.2046" y2="5.5283" gradientTransform="matrix(1 0 0 -1 0 25.1906)">
	<stop  offset="0" style="stop-color:#8100E7"/>
	<stop  offset="0.5365" style="stop-color:#3EFFF3"/>
	<stop  offset="1" style="stop-color:#00BBF5"/>
</linearGradient>
<path style="fill:url(#SVGID_00000071536566206359253330000011089309290829688223_);" d="M13.5,11.3l7.2,7.2H17
	c-0.1,0-0.2,0-0.4-0.1l-2.3-1.1c-0.1-0.1-0.2-0.2-0.3-0.3c-0.6-1.4-0.8-2.9-0.7-4.3L13.5,11.3z"/>
<linearGradient id="SVGID_00000059990770844804682490000004909119228501883274_" gradientUnits="userSpaceOnUse" x1="8.6964" y1="25.1906" x2="8.6964" y2="7.7978" gradientTransform="matrix(1 0 0 -1 0 25.1906)">
	<stop  offset="0" style="stop-color:#232323"/>
	<stop  offset="0.4896" style="stop-color:#202947"/>
	<stop  offset="1" style="stop-color:#232323"/>
</linearGradient>
<linearGradient id="SVGID_00000168835555224668914250000005277239987116476084_" gradientUnits="userSpaceOnUse" x1="8.6964" y1="25.1906" x2="8.6964" y2="7.7978" gradientTransform="matrix(1 0 0 -1 0 25.1906)">
	<stop  offset="0" style="stop-color:#57FFD7"/>
	<stop  offset="0.5104" style="stop-color:#E95FFF"/>
	<stop  offset="1" style="stop-color:#01FFFF"/>
</linearGradient>
<circle style="fill:url(#SVGID_00000059990770844804682490000004909119228501883274_);stroke:url(#SVGID_00000168835555224668914250000005277239987116476084_);stroke-width:3.727;" cx="8.7" cy="8.7" r="6.8"/>
<circle class="st7" cx="8.7" cy="8.7" r="2.5"/>
</svg>
